ffmpeg started on 2025-05-28 at 11:45:36
Report written to "D:\Convert\FFMetrics\reports\ssim_report-6.txt"
Log level: 32
Command line:
ffmpeg -hide_banner -nostdin -i "G:\\\xc0\xed\xe8\xec\xe5\\\xce\xed\xe3\xee\xe8\xed\xe3\xe8\\!_36_\xce\xf1\xe5\xed\xfc_2024\\JamClub\\SAO\\\xc0\xeb\xfc\xf2\xe5\xf0\xed\xe0\xf2\xe8\xe2\xed\xe0\xff \xab\xcf\xf0\xe8\xe7\xf0\xe0\xf7\xed\xe0\xff \xef\xf3\xeb\xff\xbb\\\xd2\xc2-2\\JamClub_Sword_Art_Online_Alternative_Gun_Gale_Online_II_10_1080p_HEVC.mkv" -i "G:\\\xc0\xed\xe8\xec\xe5\\\xce\xed\xe3\xee\xe8\xed\xe3\xe8\\!_36_\xce\xf1\xe5\xed\xfc_2024\\JamClub\\SAO\\\xc0\xeb\xfc\xf2\xe5\xf0\xed\xe0\xf2\xe8\xe2\xed\xe0\xff \xab\xcf\xf0\xe8\xe7\xf0\xe0\xf7\xed\xe0\xff \xef\xf3\xeb\xff\xbb\\\xd2\xc2-2\\JamClub_Sword_Art_Online_Alternative_Gun_Gale_Online_II_10_1080p.mp4" -lavfi "[0:v]settb=AVTB,setpts=PTS-STARTPTS,format=pix_fmts=yuv420p10,fps=24000/1001,scale=1920:1080:flags=bicubic[main];[1:v]settb=AVTB,setpts=PTS-STARTPTS,format=pix_fmts=yuv420p,fps=24000/1001,scale=1920:1080:flags=bicubic[ref];[main][ref]ssim=eof_action=endall:stats_file='D\\:/Convert/FFMetrics/logs/ssim_logfile-6.txt'" -f null -
Input #0, matroska,webm, from 'G:\Аниме\Онгоинги\!_36_Осень_2024\JamClub\SAO\Альтернативная «Призрачная пуля»\ТВ-2\JamClub_Sword_Art_Online_Alternative_Gun_Gale_Online_II_10_1080p_HEVC.mkv':
  Metadata:
    COMPATIBLE_BRANDS: isomiso2avc1mp41
    MAJOR_BRAND     : isom
    MINOR_VERSION   : 512
    ENCODER         : Lavf61.7.100
  Duration: 00:24:02.56, start: -0.001000, bitrate: 1391 kb/s
  Stream #0:0: Video: hevc (Main 10), yuv420p10le(tv, bt709, progressive), 1920x1080 [SAR 1:1 DAR 16:9], 23.98 fps, 23.98 tbr, 1k tbn (default)
      Metadata:
        HANDLER_NAME    : VideoHandler
        VENDOR_ID       : [0][0][0][0]
        ENCODER         : Lavc61.19.100 libx265
        BPS             : 1193777
        DURATION        : 00:24:02.190708333
        NUMBER_OF_FRAMES: 34579
        NUMBER_OF_BYTES : 215206778
        _STATISTICS_WRITING_APP: mkvpropedit v66.0.0 ('Josie') 64-bit
        _STATISTICS_WRITING_DATE_UTC: 2025-05-27 17:00:36
        _STATISTICS_TAGS: BPS DURATION NUMBER_OF_FRAMES NUMBER_OF_BYTES
  Stream #0:1(eng): Audio: aac (LC), 48000 Hz, stereo, fltp (default)
      Metadata:
        HANDLER_NAME    : SoundHandler
        VENDOR_ID       : [0][0][0][0]
        ENCODER         : Lavc61.19.100 aac
        BPS             : 193718
        DURATION        : 00:24:02.520000000
        NUMBER_OF_FRAMES: 67619
        NUMBER_OF_BYTES : 34930332
        _STATISTICS_WRITING_APP: mkvpropedit v66.0.0 ('Josie') 64-bit
        _STATISTICS_WRITING_DATE_UTC: 2025-05-27 17:00:36
        _STATISTICS_TAGS: BPS DURATION NUMBER_OF_FRAMES NUMBER_OF_BYTES
Input #1, mov,mp4,m4a,3gp,3g2,mj2, from 'G:\Аниме\Онгоинги\!_36_Осень_2024\JamClub\SAO\Альтернативная «Призрачная пуля»\ТВ-2\JamClub_Sword_Art_Online_Alternative_Gun_Gale_Online_II_10_1080p.mp4':
  Metadata:
    major_brand     : isom
    minor_version   : 512
    compatible_brands: isomiso2avc1mp41
    encoder         : Lavf60.16.100
  Duration: 00:24:02.54, start: 0.000000, bitrate: 4772 kb/s
  Stream #1:0[0x1](und): Video: h264 (High) (avc1 / 0x31637661), yuv420p(progressive), 1920x1080 [SAR 1:1 DAR 16:9], 4575 kb/s, 23.98 fps, 23.98 tbr, 90k tbn (default)
      Metadata:
        handler_name    : VideoHandler
        vendor_id       : [0][0][0][0]
  Stream #1:1[0x2](eng): Audio: aac (LC) (mp4a / 0x6134706D), 48000 Hz, stereo, fltp, 191 kb/s (default)
      Metadata:
        handler_name    : SoundHandler
        vendor_id       : [0][0][0][0]
Stream mapping:
  Stream #0:0 (hevc) -> settb:default
  Stream #1:0 (h264) -> settb:default
  ssim:default -> Stream #0:0 (wrapped_avframe)
  Stream #0:1 -> #0:1 (aac (native) -> pcm_s16le (native))
Output #0, null, to 'pipe:':
  Metadata:
    COMPATIBLE_BRANDS: isomiso2avc1mp41
    MAJOR_BRAND     : isom
    MINOR_VERSION   : 512
    encoder         : Lavf61.7.100
  Stream #0:0: Video: wrapped_avframe, yuv420p10le(tv, bt709, progressive), 1920x1080 [SAR 1:1 DAR 16:9], q=2-31, 200 kb/s, 23.98 fps, 23.98 tbn
      Metadata:
        encoder         : Lavc61.19.100 wrapped_avframe
  Stream #0:1(eng): Audio: pcm_s16le, 48000 Hz, stereo, s16, 1536 kb/s (default)
      Metadata:
        HANDLER_NAME    : SoundHandler
        VENDOR_ID       : [0][0][0][0]
        _STATISTICS_TAGS: BPS DURATION NUMBER_OF_FRAMES NUMBER_OF_BYTES
        BPS             : 193718
        DURATION        : 00:24:02.520000000
        NUMBER_OF_FRAMES: 67619
        NUMBER_OF_BYTES : 34930332
        _STATISTICS_WRITING_APP: mkvpropedit v66.0.0 ('Josie') 64-bit
        _STATISTICS_WRITING_DATE_UTC: 2025-05-27 17:00:36
        encoder         : Lavc61.19.100 pcm_s16le
frame=  107 fps=0.0 q=-0.0 size=N/A time=00:00:04.46 bitrate=N/A speed=8.84x    frame=  268 fps=260 q=-0.0 size=N/A time=00:00:11.17 bitrate=N/A speed=10.8x    frame=  456 fps=296 q=-0.0 size=N/A time=00:00:19.01 bitrate=N/A speed=12.3x    frame=  694 fps=338 q=-0.0 size=N/A time=00:00:28.94 bitrate=N/A speed=14.1x    frame=  908 fps=352 q=-0.0 size=N/A time=00:00:37.87 bitrate=N/A speed=14.7x    frame= 1152 fps=373 q=-0.0 size=N/A time=00:00:48.04 bitrate=N/A speed=15.6x    frame= 1408 fps=390 q=-0.0 size=N/A time=00:00:58.72 bitrate=N/A speed=16.3x    frame= 1629 fps=395 q=-0.0 size=N/A time=00:01:07.94 bitrate=N/A speed=16.5x    frame= 1841 fps=398 q=-0.0 size=N/A time=00:01:16.78 bitrate=N/A speed=16.6x    frame= 2040 fps=396 q=-0.0 size=N/A time=00:01:25.08 bitrate=N/A speed=16.5x    frame= 2252 fps=398 q=-0.0 size=N/A time=00:01:33.92 bitrate=N/A speed=16.6x    frame= 2450 fps=396 q=-0.0 size=N/A time=00:01:42.18 bitrate=N/A speed=16.5x    frame= 2668 fps=398 q=-0.0 size=N/A time=00:01:51.27 bitrate=N/A speed=16.6x    frame= 2874 fps=398 q=-0.0 size=N/A time=00:01:59.86 bitrate=N/A speed=16.6x    frame= 3067 fps=396 q=-0.0 size=N/A time=00:02:07.91 bitrate=N/A speed=16.5x    frame= 3229 fps=391 q=-0.0 size=N/A time=00:02:14.67 bitrate=N/A speed=16.3x    frame= 3409 fps=388 q=-0.0 size=N/A time=00:02:22.18 bitrate=N/A speed=16.2x    frame= 3549 fps=382 q=-0.0 size=N/A time=00:02:28.02 bitrate=N/A speed=15.9x    frame= 3741 fps=381 q=-0.0 size=N/A time=00:02:36.03 bitrate=N/A speed=15.9x    frame= 3910 fps=378 q=-0.0 size=N/A time=00:02:43.07 bitrate=N/A speed=15.8x    frame= 4075 fps=376 q=-0.0 size=N/A time=00:02:49.96 bitrate=N/A speed=15.7x    frame= 4270 fps=375 q=-0.0 size=N/A time=00:02:58.09 bitrate=N/A speed=15.7x    frame= 4476 fps=377 q=-0.0 size=N/A time=00:03:06.68 bitrate=N/A speed=15.7x    frame= 4733 fps=381 q=-0.0 size=N/A time=00:03:17.40 bitrate=N/A speed=15.9x    frame= 4962 fps=384 q=-0.0 size=N/A time=00:03:26.95 bitrate=N/A speed=  16x    frame= 5163 fps=384 q=-0.0 size=N/A time=00:03:35.34 bitrate=N/A speed=  16x    frame= 5353 fps=384 q=-0.0 size=N/A time=00:03:43.26 bitrate=N/A speed=  16x    frame= 5596 fps=387 q=-0.0 size=N/A time=00:03:53.39 bitrate=N/A speed=16.1x    frame= 5845 fps=390 q=-0.0 size=N/A time=00:04:03.78 bitrate=N/A speed=16.3x    frame= 6113 fps=395 q=-0.0 size=N/A time=00:04:14.96 bitrate=N/A speed=16.5x    frame= 6374 fps=398 q=-0.0 size=N/A time=00:04:25.84 bitrate=N/A speed=16.6x    frame= 6592 fps=399 q=-0.0 size=N/A time=00:04:34.94 bitrate=N/A speed=16.6x    frame= 6844 fps=401 q=-0.0 size=N/A time=00:04:45.45 bitrate=N/A speed=16.7x    frame= 7120 fps=405 q=-0.0 size=N/A time=00:04:56.96 bitrate=N/A speed=16.9x    frame= 7384 fps=408 q=-0.0 size=N/A time=00:05:07.97 bitrate=N/A speed=  17x    frame= 7630 fps=410 q=-0.0 size=N/A time=00:05:18.23 bitrate=N/A speed=17.1x    frame= 7877 fps=412 q=-0.0 size=N/A time=00:05:28.53 bitrate=N/A speed=17.2x    frame= 8127 fps=414 q=-0.0 size=N/A time=00:05:38.96 bitrate=N/A speed=17.3x    frame= 8399 fps=417 q=-0.0 size=N/A time=00:05:50.30 bitrate=N/A speed=17.4x    frame= 8648 fps=418 q=-0.0 size=N/A time=00:06:00.69 bitrate=N/A speed=17.4x    frame= 8907 fps=421 q=-0.0 size=N/A time=00:06:11.49 bitrate=N/A speed=17.5x    frame= 9156 fps=422 q=-0.0 size=N/A time=00:06:21.88 bitrate=N/A speed=17.6x    frame= 9401 fps=423 q=-0.0 size=N/A time=00:06:32.10 bitrate=N/A speed=17.6x    frame= 9665 fps=425 q=-0.0 size=N/A time=00:06:43.11 bitrate=N/A speed=17.7x    frame= 9920 fps=426 q=-0.0 size=N/A time=00:06:53.74 bitrate=N/A speed=17.8x    frame=10185 fps=428 q=-0.0 size=N/A time=00:07:04.79 bitrate=N/A speed=17.9x    frame=10451 fps=430 q=-0.0 size=N/A time=00:07:15.89 bitrate=N/A speed=17.9x    frame=10711 fps=432 q=-0.0 size=N/A time=00:07:26.73 bitrate=N/A speed=  18x    frame=10969 fps=433 q=-0.0 size=N/A time=00:07:37.49 bitrate=N/A speed=18.1x    frame=11258 fps=436 q=-0.0 size=N/A time=00:07:49.55 bitrate=N/A speed=18.2x    frame=11483 fps=436 q=-0.0 size=N/A time=00:07:58.93 bitrate=N/A speed=18.2x    frame=11697 fps=435 q=-0.0 size=N/A time=00:08:07.86 bitrate=N/A speed=18.2x    frame=11915 fps=435 q=-0.0 size=N/A time=00:08:16.95 bitrate=N/A speed=18.2x    frame=12155 fps=436 q=-0.0 size=N/A time=00:08:26.96 bitrate=N/A speed=18.2x    frame=12359 fps=435 q=-0.0 size=N/A time=00:08:35.47 bitrate=N/A speed=18.1x    frame=12587 fps=435 q=-0.0 size=N/A time=00:08:44.98 bitrate=N/A speed=18.1x    frame=12812 fps=435 q=-0.0 size=N/A time=00:08:54.36 bitrate=N/A speed=18.1x    frame=13051 fps=436 q=-0.0 size=N/A time=00:09:04.33 bitrate=N/A speed=18.2x    frame=13285 fps=436 q=-0.0 size=N/A time=00:09:14.09 bitrate=N/A speed=18.2x    frame=13545 fps=437 q=-0.0 size=N/A time=00:09:24.98 bitrate=N/A speed=18.2x    frame=13810 fps=438 q=-0.0 size=N/A time=00:09:35.99 bitrate=N/A speed=18.3x    frame=14076 fps=440 q=-0.0 size=N/A time=00:09:47.08 bitrate=N/A speed=18.3x    frame=14335 fps=440 q=-0.0 size=N/A time=00:09:57.88 bitrate=N/A speed=18.4x    frame=14590 fps=441 q=-0.0 size=N/A time=00:10:08.52 bitrate=N/A speed=18.4x    frame=14840 fps=442 q=-0.0 size=N/A time=00:10:18.95 bitrate=N/A speed=18.4x    frame=15092 fps=443 q=-0.0 size=N/A time=00:10:29.46 bitrate=N/A speed=18.5x    frame=15319 fps=443 q=-0.0 size=N/A time=00:10:38.92 bitrate=N/A speed=18.5x    frame=15589 fps=444 q=-0.0 size=N/A time=00:10:50.19 bitrate=N/A speed=18.5x    frame=15860 fps=445 q=-0.0 size=N/A time=00:11:01.49 bitrate=N/A speed=18.6x    frame=16099 fps=445 q=-0.0 size=N/A time=00:11:11.46 bitrate=N/A speed=18.6x    frame=16297 fps=444 q=-0.0 size=N/A time=00:11:19.72 bitrate=N/A speed=18.5x    frame=16505 fps=444 q=-0.0 size=N/A time=00:11:28.39 bitrate=N/A speed=18.5x    frame=16709 fps=443 q=-0.0 size=N/A time=00:11:36.90 bitrate=N/A speed=18.5x    frame=16959 fps=444 q=-0.0 size=N/A time=00:11:47.33 bitrate=N/A speed=18.5x    frame=17206 fps=444 q=-0.0 size=N/A time=00:11:57.63 bitrate=N/A speed=18.5x    frame=17413 fps=444 q=-0.0 size=N/A time=00:12:06.26 bitrate=N/A speed=18.5x    frame=17627 fps=443 q=-0.0 size=N/A time=00:12:15.19 bitrate=N/A speed=18.5x    frame=17842 fps=443 q=-0.0 size=N/A time=00:12:24.16 bitrate=N/A speed=18.5x    frame=18063 fps=443 q=-0.0 size=N/A time=00:12:33.37 bitrate=N/A speed=18.5x    frame=18272 fps=442 q=-0.0 size=N/A time=00:12:42.09 bitrate=N/A speed=18.4x    frame=18513 fps=443 q=-0.0 size=N/A time=00:12:52.14 bitrate=N/A speed=18.5x    frame=18735 fps=442 q=-0.0 size=N/A time=00:13:01.40 bitrate=N/A speed=18.5x    frame=18972 fps=443 q=-0.0 size=N/A time=00:13:11.29 bitrate=N/A speed=18.5x    frame=19210 fps=443 q=-0.0 size=N/A time=00:13:21.21 bitrate=N/A speed=18.5x    frame=19421 fps=442 q=-0.0 size=N/A time=00:13:30.01 bitrate=N/A speed=18.4x    frame=19647 fps=442 q=-0.0 size=N/A time=00:13:39.44 bitrate=N/A speed=18.5x    frame=19904 fps=443 q=-0.0 size=N/A time=00:13:50.16 bitrate=N/A speed=18.5x    frame=20167 fps=444 q=-0.0 size=N/A time=00:14:01.13 bitrate=N/A speed=18.5x    frame=20413 fps=444 q=-0.0 size=N/A time=00:14:11.39 bitrate=N/A speed=18.5x    frame=20691 fps=445 q=-0.0 size=N/A time=00:14:22.98 bitrate=N/A speed=18.6x    frame=20922 fps=445 q=-0.0 size=N/A time=00:14:32.62 bitrate=N/A speed=18.6x    frame=21171 fps=446 q=-0.0 size=N/A time=00:14:43.00 bitrate=N/A speed=18.6x    frame=21447 fps=447 q=-0.0 size=N/A time=00:14:54.51 bitrate=N/A speed=18.6x    frame=21690 fps=447 q=-0.0 size=N/A time=00:15:04.65 bitrate=N/A speed=18.6x    frame=21931 fps=447 q=-0.0 size=N/A time=00:15:14.70 bitrate=N/A speed=18.6x    frame=22184 fps=448 q=-0.0 size=N/A time=00:15:25.25 bitrate=N/A speed=18.7x    frame=22460 fps=448 q=-0.0 size=N/A time=00:15:36.76 bitrate=N/A speed=18.7x    frame=22703 fps=449 q=-0.0 size=N/A time=00:15:46.90 bitrate=N/A speed=18.7x    frame=22892 fps=448 q=-0.0 size=N/A time=00:15:54.78 bitrate=N/A speed=18.7x    frame=23103 fps=447 q=-0.0 size=N/A time=00:16:03.58 bitrate=N/A speed=18.7x    frame=23342 fps=448 q=-0.0 size=N/A time=00:16:13.55 bitrate=N/A speed=18.7x    frame=23584 fps=448 q=-0.0 size=N/A time=00:16:23.64 bitrate=N/A speed=18.7x    frame=23839 fps=448 q=-0.0 size=N/A time=00:16:34.28 bitrate=N/A speed=18.7x    frame=24086 fps=449 q=-0.0 size=N/A time=00:16:44.58 bitrate=N/A speed=18.7x    frame=24338 fps=449 q=-0.0 size=N/A time=00:16:55.09 bitrate=N/A speed=18.7x    frame=24561 fps=449 q=-0.0 size=N/A time=00:17:04.39 bitrate=N/A speed=18.7x    frame=24821 fps=449 q=-0.0 size=N/A time=00:17:15.24 bitrate=N/A speed=18.7x    frame=25066 fps=450 q=-0.0 size=N/A time=00:17:25.46 bitrate=N/A speed=18.8x    frame=25346 fps=450 q=-0.0 size=N/A time=00:17:37.13 bitrate=N/A speed=18.8x    frame=25594 fps=451 q=-0.0 size=N/A time=00:17:47.48 bitrate=N/A speed=18.8x    frame=25866 fps=451 q=-0.0 size=N/A time=00:17:58.82 bitrate=N/A speed=18.8x    frame=26102 fps=451 q=-0.0 size=N/A time=00:18:08.67 bitrate=N/A speed=18.8x    frame=26363 fps=452 q=-0.0 size=N/A time=00:18:19.55 bitrate=N/A speed=18.8x    frame=26620 fps=452 q=-0.0 size=N/A time=00:18:30.27 bitrate=N/A speed=18.9x    frame=26876 fps=453 q=-0.0 size=N/A time=00:18:40.95 bitrate=N/A speed=18.9x    frame=27123 fps=453 q=-0.0 size=N/A time=00:18:51.25 bitrate=N/A speed=18.9x    frame=27386 fps=453 q=-0.0 size=N/A time=00:19:02.22 bitrate=N/A speed=18.9x    frame=27647 fps=454 q=-0.0 size=N/A time=00:19:13.11 bitrate=N/A speed=18.9x    frame=27912 fps=454 q=-0.0 size=N/A time=00:19:24.16 bitrate=N/A speed=  19x    frame=28151 fps=454 q=-0.0 size=N/A time=00:19:34.13 bitrate=N/A speed=  19x    frame=28381 fps=454 q=-0.0 size=N/A time=00:19:43.72 bitrate=N/A speed=  19x    frame=28615 fps=454 q=-0.0 size=N/A time=00:19:53.48 bitrate=N/A speed=  19x    frame=28838 fps=454 q=-0.0 size=N/A time=00:20:02.78 bitrate=N/A speed=18.9x    frame=29093 fps=454 q=-0.0 size=N/A time=00:20:13.42 bitrate=N/A speed=  19x    frame=29346 fps=455 q=-0.0 size=N/A time=00:20:23.97 bitrate=N/A speed=  19x    frame=29609 fps=455 q=-0.0 size=N/A time=00:20:34.94 bitrate=N/A speed=  19x    frame=29872 fps=456 q=-0.0 size=N/A time=00:20:45.91 bitrate=N/A speed=  19x    frame=30130 fps=456 q=-0.0 size=N/A time=00:20:56.67 bitrate=N/A speed=  19x    frame=30386 fps=456 q=-0.0 size=N/A time=00:21:07.34 bitrate=N/A speed=  19x    frame=30623 fps=456 q=-0.0 size=N/A time=00:21:17.27 bitrate=N/A speed=  19x    frame=30854 fps=456 q=-0.0 size=N/A time=00:21:26.86 bitrate=N/A speed=  19x    frame=31068 fps=456 q=-0.0 size=N/A time=00:21:35.79 bitrate=N/A speed=  19x    frame=31315 fps=456 q=-0.0 size=N/A time=00:21:46.09 bitrate=N/A speed=  19x    frame=31524 fps=456 q=-0.0 size=N/A time=00:21:54.81 bitrate=N/A speed=  19x    frame=31751 fps=456 q=-0.0 size=N/A time=00:22:04.28 bitrate=N/A speed=  19x    frame=31968 fps=455 q=-0.0 size=N/A time=00:22:13.33 bitrate=N/A speed=  19x    frame=32207 fps=455 q=-0.0 size=N/A time=00:22:23.30 bitrate=N/A speed=  19x    frame=32384 fps=455 q=-0.0 size=N/A time=00:22:30.68 bitrate=N/A speed=  19x    frame=32571 fps=454 q=-0.0 size=N/A time=00:22:38.48 bitrate=N/A speed=18.9x    frame=32749 fps=453 q=-0.0 size=N/A time=00:22:45.90 bitrate=N/A speed=18.9x    frame=32910 fps=452 q=-0.0 size=N/A time=00:22:52.62 bitrate=N/A speed=18.9x    frame=33073 fps=451 q=-0.0 size=N/A time=00:22:59.41 bitrate=N/A speed=18.8x    frame=33258 fps=451 q=-0.0 size=N/A time=00:23:07.13 bitrate=N/A speed=18.8x    frame=33440 fps=450 q=-0.0 size=N/A time=00:23:14.72 bitrate=N/A speed=18.8x    frame=33601 fps=449 q=-0.0 size=N/A time=00:23:21.44 bitrate=N/A speed=18.7x    frame=33754 fps=448 q=-0.0 size=N/A time=00:23:27.82 bitrate=N/A speed=18.7x    frame=33928 fps=447 q=-0.0 size=N/A time=00:23:35.08 bitrate=N/A speed=18.6x    frame=34108 fps=446 q=-0.0 size=N/A time=00:23:42.58 bitrate=N/A speed=18.6x    frame=34343 fps=446 q=-0.0 size=N/A time=00:23:52.38 bitrate=N/A speed=18.6x    [Parsed_ssim_10 @ 0000019ea63b6d80] SSIM Y:0.992916 (21.496980) U:0.993795 (22.072286) V:0.993717 (22.018223) All:0.993196 (21.672133)
[out#0/null @ 0000019ea6e48040] video:14858KiB audio:270476KiB subtitle:0KiB other streams:0KiB global headers:0KiB muxing overhead: unknown
frame=34578 fps=447 q=-0.0 Lsize=N/A time=00:24:02.19 bitrate=N/A speed=18.6x    
